<?xml version="1.0" encoding="UTF-8"?>
<svg width="360" height="64" viewBox="0 0 360 64" xmlns="http://www.w3.org/2000/svg">
  <defs>
    <linearGradient id="g1" x1="0" x2="1">
      <stop offset="0%" stop-color="#1e40af"/>
      <stop offset="100%" stop-color="#0f172a"/>
    </linearGradient>
  </defs>
  <rect width="360" height="64" rx="8" fill="transparent" />
  <!-- Gear icon -->
  <g transform="translate(12,8) scale(0.9)">
    <path d="M24 12a3 3 0 0 0-1.2-2.4l1.1-2.8-3-3-2.8 1.1A3 3 0 0 0 16 2h-4a3 3 0 0 0-2.2 1.3L7 2.2 4 5.2l1.1 2.8A3 3 0 0 0 4 12c0 .9.4 1.8 1 2.4L4 17.2l3 3 2.8-1.1A3 3 0 0 0 12 22h4a3 3 0 0 0 2.2-1.3l2.8 1.1 3-3-1.1-2.8c.6-.6 1-1.5 1-2.4z" fill="#f97316" />
    <circle cx="12" cy="12" r="4" fill="#fff" />
  </g>
  <!-- Text -->
  <text x="72" y="38" font-family="Inter, Roboto, Arial, sans-serif" font-size="20" font-weight="700" fill="url(#g1)">Flota Martinez</text>
  <text x="72" y="52" font-family="Inter, Roboto, Arial, sans-serif" font-size="10" fill="#64748b">Taller Mecánico Profesional</text>
</svg>
